<svg version="1.1" id="Layer_1" xmlns="http://www.w3.org/2000/svg" xmlns:xlink="http://www.w3.org/1999/xlink" x="0px" y="0px"
	 width="100%" viewBox="0 0 1080 1080" enable-background="new 0 0 1080 1080" xml:space="preserve">
<path fill="#FFFFFF" opacity="1.000000" stroke="none" 
	d="
M1081.000000,419.000000 
	C1081.000000,639.974487 1081.000000,860.448975 1081.000000,1080.961670 
	C721.067139,1080.961670 361.134247,1080.961670 1.100688,1080.961670 
	C1.100688,721.108765 1.100688,361.217529 1.100688,1.163129 
	C360.999939,1.163129 720.999939,1.163129 1081.000000,1.163129 
	C1081.000000,140.199203 1081.000000,279.349609 1081.000000,419.000000 
M859.161499,567.866577 
	C855.090942,569.871582 851.020447,571.876648 846.227539,573.982300 
	C841.826355,576.027832 837.425232,578.073364 832.325928,580.266174 
	C827.233398,582.589844 822.140869,584.913452 816.370544,587.380859 
	C810.665527,590.021484 804.898926,592.540894 799.299072,595.388367 
	C797.905396,596.097107 796.152832,597.822510 796.088806,599.153809 
	C795.523315,610.918945 798.603638,621.740051 805.656372,631.244263 
	C806.352600,632.182495 808.595886,632.840027 809.698486,632.445801 
	C812.923401,631.292725 815.934509,629.541626 819.754761,627.927490 
	C824.851807,625.629150 829.948853,623.330811 835.710449,620.735596 
	C839.872070,618.876648 844.033630,617.017700 848.920349,615.059631 
	C852.643127,613.712341 856.365906,612.365051 860.227783,611.834534 
	C859.738892,614.300110 859.249939,616.765686 858.291077,619.659058 
	C856.921875,620.751770 855.685303,622.103699 854.157104,622.885559 
	C850.517761,624.747559 846.740662,626.340271 842.292175,628.082214 
	C832.612305,632.242737 822.932434,636.403198 812.246582,640.996033 
	C822.195190,649.072754 831.381226,656.505554 842.451660,662.465759 
	C844.387024,663.673523 846.322449,664.881226 848.122437,666.861328 
	C846.987000,667.639038 845.926208,668.905762 844.700623,669.092773 
	C842.127808,669.485657 839.468384,669.311096 836.213013,669.179749 
	C834.592529,668.565491 832.813843,668.199890 831.382202,667.288818 
	C827.558838,664.856140 823.884460,662.189148 819.783142,659.079895 
	C802.515625,645.189697 789.390198,628.701904 786.868286,604.312927 
	C781.247131,615.695007 778.075256,626.053528 777.991272,637.265564 
	C777.907410,648.455994 781.322876,658.763733 786.958252,670.197815 
	C782.541443,669.053711 777.648560,669.115051 776.875671,667.361023 
	C773.092896,658.776428 769.376770,649.926697 771.544678,640.039795 
	C792.027466,546.626343 812.487732,453.208008 832.943298,359.788605 
	C854.466125,261.495148 875.977905,163.199249 897.490906,64.903625 
	C900.222961,52.420616 902.933167,39.932842 905.673706,27.354649 
	C802.339111,27.354649 699.493164,27.354649 596.210449,27.354649 
	C597.386292,28.993036 598.213013,30.216457 599.110657,31.385336 
	C622.747253,62.163109 645.919922,93.315659 670.291931,123.499832 
	C678.700867,133.914093 682.819641,143.518539 677.237488,156.108963 
	C676.844238,156.996017 676.892883,158.071381 676.679016,159.046646 
	C652.488342,269.354614 628.278564,379.658447 604.100281,489.969147 
	C581.844849,591.506836 559.619568,693.051086 537.391846,794.594849 
	C535.350098,803.922241 533.387146,813.266907 531.302734,823.000000 
	C533.700684,823.000000 535.355469,823.000000 537.010254,823.000000 
	C664.337219,823.000000 791.664246,823.000488 918.991211,822.994202 
	C920.655212,822.994141 922.319275,822.908142 924.726562,823.012573 
	C926.777466,823.820374 928.828369,824.628174 931.290771,825.929749 
	C946.167908,836.342102 961.044983,846.754395 976.227478,857.754944 
	C992.814453,871.442871 1007.448792,886.937744 1019.854797,905.296448 
	C1032.787109,925.194580 1040.482422,947.057190 1043.953735,970.589600 
	C1044.789917,969.774353 1045.098633,969.076660 1045.344727,968.357666 
	C1052.517212,947.410278 1056.878052,926.133301 1053.966553,903.788818 
	C1050.744507,879.059570 1040.548462,857.796509 1022.997192,839.246704 
	C1017.436951,833.889099 1011.876709,828.531494 1007.143311,823.075073 
	C1009.805481,822.382324 1014.320068,824.976013 1014.754028,819.190857 
	C1016.279541,820.454468 1018.033020,821.524902 1019.293884,823.012756 
	C1027.847168,833.105530 1036.296509,843.286377 1044.935303,854.093323 
	C1056.996338,873.688538 1063.552002,895.162903 1066.434570,919.328918 
	C1067.321655,916.850403 1067.768311,915.818665 1068.063599,914.745178 
	C1073.074463,896.533386 1075.980713,878.161987 1073.993774,859.131470 
	C1071.473755,834.995361 1063.165894,813.410400 1047.174072,794.160522 
	C1045.546509,792.273560 1044.018799,790.287903 1042.272827,788.517639 
	C1036.456299,782.620239 1030.561768,776.799988 1024.917847,770.163391 
	C1037.548096,711.902161 1050.178345,653.640930 1062.948730,594.733215 
	C1035.990845,594.733215 1009.396240,594.733215 982.994690,594.418091 
	C983.216064,594.245178 983.289429,594.023315 983.884888,593.462646 
	C990.016296,588.244446 996.147705,583.026245 1002.929382,577.490845 
	C1007.626038,572.343689 1012.322693,567.196533 1017.615784,561.730347 
	C1026.951416,548.749573 1034.900635,535.199707 1035.516968,518.593628 
	C1035.973267,506.302460 1033.355347,494.731750 1027.379395,482.527466 
	C1025.837402,496.059692 1020.610840,506.795166 1013.610474,517.446533 
	C1009.396790,522.603210 1005.183167,527.759827 1000.347534,533.175049 
	C994.245056,538.830139 988.142639,544.485229 981.398987,550.319946 
	C975.279053,554.993042 969.159058,559.666138 962.426331,564.551636 
	C956.278015,568.689209 950.129700,572.826721 943.285034,577.060913 
	C937.847168,580.347290 932.409363,583.633667 926.263123,587.010681 
	C921.186646,589.693420 916.110168,592.376160 910.100159,594.897583 
	C904.091187,594.840759 898.082153,594.783936 892.501099,594.216125 
	C896.336365,592.156189 900.171631,590.096252 904.713806,587.938965 
	C909.925903,585.025146 915.137939,582.111267 920.873535,578.744995 
	C925.343750,576.204651 929.813904,573.664307 934.959106,570.997314 
	C939.011292,568.438477 943.063477,565.879639 947.716064,562.928284 
	C953.156860,559.325073 958.597656,555.721802 964.714905,551.920410 
	C970.510010,547.292786 976.305176,542.665161 982.720825,537.800537 
	C987.132202,533.456726 991.543518,529.112976 996.521667,524.453186 
	C1004.218140,515.745056 1011.225342,506.636871 1015.307007,495.529572 
	C1021.412842,478.913971 1019.987305,462.872375 1012.451721,447.124237 
	C1013.108093,455.825317 1010.448486,463.597565 1005.592041,470.522308 
	C1001.796021,475.935028 997.332520,480.879639 992.536865,486.293701 
	C987.889404,490.474060 983.242004,494.654388 977.955383,499.000092 
	C972.977783,502.761902 968.000244,506.523743 962.397095,510.472839 
	C956.309265,514.522400 950.221375,518.571899 943.534729,522.818054 
	C939.367676,525.327637 935.200623,527.837158 930.408875,530.556946 
	C926.272400,533.037109 922.135864,535.517334 917.294556,538.066833 
	C912.534607,540.753906 907.774658,543.440979 902.323792,546.225830 
	C897.523865,548.757019 892.723877,551.288147 887.224060,553.994873 
	C882.493469,556.403625 877.762939,558.812317 872.348755,561.327881 
	C868.194397,563.455261 864.040039,565.582581 859.161499,567.866577 
M545.494263,27.831972 
	C482.830811,27.831974 420.167297,27.863483 357.504059,27.749117 
	C353.964050,27.742657 352.360291,28.801617 350.964203,32.097672 
	C330.828064,79.636871 310.507904,127.098083 290.257568,174.588943 
	C198.771118,389.141937 107.292778,603.698364 15.813207,818.254333 
	C15.136587,819.841248 14.483885,821.438293 13.777992,823.131409 
	C14.753862,823.351196 15.065307,823.482666 15.376782,823.482727 
	C85.875229,823.496887 156.373703,823.478271 226.871994,823.588318 
	C229.877533,823.593018 230.849457,822.200806 231.829803,819.889404 
	C256.396149,761.967468 280.992096,704.058105 305.651520,646.175781 
	C306.677795,643.766846 306.641022,642.203552 304.787598,640.061951 
	C282.547668,614.364746 260.442200,588.551147 238.308319,562.762207 
	C227.952560,550.696289 217.611328,538.617981 206.656067,525.836609 
	C209.384369,525.836609 211.158554,525.836609 212.932739,525.836609 
	C258.265106,525.836609 303.597595,525.792114 348.929596,525.923462 
	C352.455963,525.933716 354.058167,524.877808 355.386108,521.603271 
	C392.502747,430.078674 429.732880,338.600098 466.949097,247.115906 
	C468.912994,242.288330 470.918854,237.477829 472.905151,232.659378 
	C473.369781,232.725098 473.834442,232.790817 474.299072,232.856537 
	C474.889221,242.726608 475.859711,252.592438 475.969360,262.467834 
	C476.095123,273.791260 475.443024,285.122772 475.153564,296.451416 
	C473.020935,379.917328 470.892700,463.383331 468.774597,546.849670 
	C468.707703,549.485413 468.766144,552.124268 468.766144,555.317261 
	C408.038818,555.317261 348.018341,555.317261 287.228149,555.317261 
	C288.530609,556.899414 289.218140,557.792053 289.964294,558.632690 
	C344.712463,620.315674 399.475708,681.985291 454.158936,743.725891 
	C455.561768,745.309753 456.814362,747.633179 456.909851,749.669189 
	C457.487366,761.985596 457.837677,774.316895 458.010010,786.646790 
	C458.179443,798.772034 458.046967,810.901367 458.046967,823.260376 
	C473.519592,823.260376 487.608765,823.260376 501.821686,823.260376 
	C502.209503,821.858582 502.623749,820.595947 502.906921,819.304565 
	C520.211731,740.380188 537.524292,661.457458 554.796753,582.526001 
	C586.285706,438.628571 617.725647,294.720337 649.345886,150.851746 
	C650.278076,146.610535 649.492676,143.740723 646.971985,140.474152 
	C620.934753,106.731712 594.733948,73.107834 569.277100,38.930714 
	C563.124512,30.670534 556.986511,25.625278 545.494263,27.831972 
M338.886810,872.706299 
	C342.324707,866.170837 347.691833,868.577209 352.981110,869.987854 
	C354.874237,864.521790 356.701141,859.246887 358.646301,853.630554 
	C348.530121,849.508667 338.763031,848.967712 329.187622,853.160034 
	C318.324219,857.916077 315.259979,867.593811 314.990723,878.859253 
	C311.676086,878.859253 308.744263,878.859253 305.882568,878.859253 
	C305.882568,884.806885 305.882568,890.345764 305.882568,896.310181 
	C309.178711,896.310181 312.096649,896.310181 315.303894,896.310181 
	C315.303894,912.025635 315.303894,927.301025 315.303894,942.766418 
	C323.182495,942.766418 330.750885,942.766418 338.834656,942.766418 
	C338.834656,927.151184 338.834656,911.767761 338.834656,896.018677 
	C344.098114,896.018677 348.859283,896.018677 354.137939,896.018677 
	C354.137939,890.204956 354.137939,884.747192 354.137939,878.577820 
	C354.864258,879.555359 355.095032,879.767456 355.206604,880.030212 
	C363.644226,899.905518 372.072876,919.784607 380.501129,939.663879 
	C382.805969,945.100098 380.914856,948.933044 374.956207,949.150024 
	C370.870117,949.298828 366.724121,947.802368 362.099213,946.947876 
	C359.904785,951.409363 357.303986,956.696899 354.681274,962.029053 
	C355.804138,962.792908 356.456604,963.306519 357.170441,963.712158 
	C374.877289,973.773621 394.662842,967.203735 403.013855,947.905396 
	C412.973083,924.890564 422.360809,901.628418 431.973389,878.463989 
	C432.250305,877.796692 432.270721,877.022949 432.451355,876.088501 
	C426.254059,876.088501 420.421326,876.245728 414.603241,876.022156 
	C411.689850,875.910278 410.150818,876.742493 409.091644,879.597229 
	C406.146179,887.536133 402.883636,895.358154 399.702942,903.208740 
	C398.009857,907.387634 396.226807,911.530029 394.038116,916.754089 
	C388.744690,903.631531 383.826874,891.704590 379.163513,879.678955 
	C378.102753,876.943542 376.791626,875.556091 373.813141,876.082397 
	C366.728088,877.334167 359.466248,874.090515 352.212341,878.323792 
	C348.761871,880.337402 343.163086,878.669800 337.981354,878.669800 
	C338.214386,876.671814 338.399506,875.084351 338.886810,872.706299 
M279.040222,937.528503 
	C279.819794,939.326233 280.599396,941.123901 281.329346,942.807129 
	C289.698395,942.807129 297.798981,942.807129 306.001404,942.807129 
	C305.951843,942.121704 306.046936,941.585144 305.864044,941.171570 
	C293.773132,913.828430 281.692657,886.480469 269.438324,859.210571 
	C268.901337,858.015625 266.785858,856.918335 265.352020,856.846497 
	C259.868225,856.571777 254.342209,857.021790 248.871933,856.635376 
	C245.180008,856.374573 243.721573,857.971924 242.373062,861.057861 
	C231.067520,886.930298 219.607117,912.734924 208.211060,938.567871 
	C207.631348,939.881897 207.213806,941.267517 206.580734,943.003906 
	C209.747131,943.003906 212.395691,943.038696 215.043030,942.996582 
	C220.346680,942.912292 226.672485,944.510620 230.643829,942.155518 
	C234.099991,940.105896 234.703125,933.471008 236.984222,929.078979 
	C237.683121,927.733276 239.729263,926.335999 241.211609,926.276001 
	C248.363388,925.986633 255.533325,926.145630 262.696808,926.145752 
	C274.351776,926.145874 274.351776,926.145935 279.040222,937.528503 
M757.546265,882.022827 
	C751.905701,887.533447 746.265137,893.044067 739.677307,899.480164 
	C739.677307,882.670715 739.677307,867.286255 739.677307,851.740417 
	C731.638245,851.740417 724.081726,851.740417 716.491394,851.740417 
	C716.491394,882.306702 716.491394,912.509033 716.491394,942.662476 
	C724.390991,942.662476 731.953369,942.662476 739.603333,942.662476 
	C740.762085,934.592346 736.541504,925.157349 747.008301,920.144653 
	C752.153015,926.569458 757.496826,933.323425 762.954407,939.984253 
	C763.936584,941.182983 765.363892,942.820374 766.626221,942.856934 
	C775.331848,943.108765 784.048218,942.989380 793.730042,942.989380 
	C783.335083,929.756226 773.614929,917.382080 763.731323,904.799805 
	C772.828918,895.357361 781.746155,886.102112 791.419678,876.061951 
	C783.963928,876.061951 777.664001,876.445557 771.434265,875.948486 
	C765.789368,875.498047 761.374573,876.912964 757.546265,882.022827 
M678.892639,875.297913 
	C669.420288,874.050476 660.849854,876.367615 653.001221,882.546265 
	C652.780151,880.067444 652.621887,878.292786 652.453552,876.405457 
	C644.950012,876.405457 637.738220,876.405457 630.395508,876.405457 
	C630.395508,898.659973 630.395508,920.572937 630.395508,942.745300 
	C638.191467,942.745300 645.754578,942.745300 653.825684,942.745300 
	C653.825684,932.418335 653.715576,922.302429 653.888855,912.191467 
	C653.945068,908.911255 654.249878,905.473022 655.311157,902.408386 
	C657.145020,897.112671 662.677063,894.352173 668.669495,895.031128 
	C673.712891,895.602539 676.796204,898.808899 677.706299,904.787415 
	C678.054504,907.074707 677.979370,909.436096 677.985229,911.764038 
	C678.011230,922.040771 677.996460,932.317566 677.996460,942.700439 
	C686.028992,942.700439 693.574646,942.700439 701.341858,942.700439 
	C701.402588,941.429932 701.497131,940.451477 701.489014,939.473755 
	C701.380066,926.318604 701.619507,913.147339 701.036987,900.012817 
	C700.431641,886.364258 693.170654,878.458862 678.892639,875.297913 
M444.628326,896.005188 
	C445.399261,898.742859 446.768738,898.014404 448.664001,896.988220 
	C455.628021,893.217529 463.015472,891.683228 470.801178,893.938110 
	C475.340820,895.252930 477.917145,898.229492 477.822754,903.557556 
	C473.631836,903.557556 469.811066,903.364624 466.017670,903.604675 
	C460.882751,903.929688 455.658722,904.093140 450.669464,905.206665 
	C440.957886,907.374023 435.466919,913.994995 435.168427,922.866150 
	C434.863037,931.941528 440.019592,939.556885 449.330841,942.321472 
	C460.353760,945.594177 471.004608,945.508240 479.853394,935.304749 
	C479.853394,938.193481 479.853394,940.425781 479.853394,942.720215 
	C487.279053,942.720215 494.350098,942.720215 501.130890,942.720215 
	C501.130890,927.983032 501.711639,913.504456 500.946747,899.097290 
	C500.337433,887.620544 493.271149,880.270325 482.269714,877.019043 
	C472.790161,874.217529 463.155151,874.254822 453.650482,876.732788 
	C448.328766,878.120117 443.211243,880.290771 437.776154,882.187195 
	C440.292816,887.335388 442.254578,891.348389 444.628326,896.005188 
M529.514282,943.000000 
	C547.283875,943.000000 565.053467,943.000000 582.922241,943.000000 
	C582.922241,936.365479 582.922241,930.285278 582.922241,923.679932 
	C569.276550,923.679932 555.875732,923.679932 541.944153,923.679932 
	C541.944153,901.103210 541.944153,879.047119 541.944153,857.022339 
	C533.646729,857.022339 525.897583,857.022339 517.930908,857.022339 
	C517.930908,885.719666 517.930908,914.116272 517.930908,943.000000 
	C521.601135,943.000000 525.059998,943.000000 529.514282,943.000000 
M591.850769,935.444824 
	C591.850769,937.872498 591.850769,940.300171 591.850769,942.740112 
	C599.919006,942.740112 607.332092,942.740112 614.803345,942.740112 
	C614.803345,920.454224 614.803345,898.429932 614.803345,876.353516 
	C607.060181,876.353516 599.654358,876.353516 591.850708,876.353516 
	C591.850708,895.908936 591.850708,915.184631 591.850769,935.444824 
M594.495544,866.172607 
	C603.497253,870.956238 613.563599,868.601562 616.830505,860.948059 
	C619.298584,855.165894 617.261536,849.001770 611.845703,845.864746 
	C605.406555,842.134949 595.994690,843.556519 591.748779,848.900208 
	C587.611328,854.107300 588.375244,860.211792 594.495544,866.172607 
z"/>
<path fill="#010101" opacity="1.000000" stroke="none" 
	d="
M545.992676,27.831972 
	C556.986511,25.625278 563.124512,30.670534 569.277100,38.930714 
	C594.733948,73.107834 620.934753,106.731712 646.971985,140.474152 
	C649.492676,143.740723 650.278076,146.610535 649.345886,150.851746 
	C617.725647,294.720337 586.285706,438.628571 554.796753,582.526001 
	C537.524292,661.457458 520.211731,740.380188 502.906921,819.304565 
	C502.623749,820.595947 502.209503,821.858582 501.821686,823.260376 
	C487.608765,823.260376 473.519592,823.260376 458.046967,823.260376 
	C458.046967,810.901367 458.179443,798.772034 458.010010,786.646790 
	C457.837677,774.316895 457.487366,761.985596 456.909851,749.669189 
	C456.814362,747.633179 455.561768,745.309753 454.158936,743.725891 
	C399.475708,681.985291 344.712463,620.315674 289.964294,558.632690 
	C289.218140,557.792053 288.530609,556.899414 287.228149,555.317261 
	C348.018341,555.317261 408.038818,555.317261 468.766144,555.317261 
	C468.766144,552.124268 468.707703,549.485413 468.774597,546.849670 
	C470.892700,463.383331 473.020935,379.917328 475.153564,296.451416 
	C475.443024,285.122772 476.095123,273.791260 475.969360,262.467834 
	C475.859711,252.592438 474.889221,242.726608 474.299072,232.856537 
	C473.834442,232.790817 473.369781,232.725098 472.905151,232.659378 
	C470.918854,237.477829 468.912994,242.288330 466.949097,247.115906 
	C429.732880,338.600098 392.502747,430.078674 355.386108,521.603271 
	C354.058167,524.877808 352.455963,525.933716 348.929596,525.923462 
	C303.597595,525.792114 258.265106,525.836609 212.932739,525.836609 
	C211.158554,525.836609 209.384369,525.836609 206.656067,525.836609 
	C217.611328,538.617981 227.952560,550.696289 238.308319,562.762207 
	C260.442200,588.551147 282.547668,614.364746 304.787598,640.061951 
	C306.641022,642.203552 306.677795,643.766846 305.651520,646.175781 
	C280.992096,704.058105 256.396149,761.967468 231.829803,819.889404 
	C230.849457,822.200806 229.877533,823.593018 226.871994,823.588318 
	C156.373703,823.478271 85.875229,823.496887 15.376782,823.482727 
	C15.065307,823.482666 14.753862,823.351196 13.777992,823.131409 
	C14.483885,821.438293 15.136587,819.841248 15.813207,818.254333 
	C107.292778,603.698364 198.771118,389.141937 290.257568,174.588943 
	C310.507904,127.098083 330.828064,79.636871 350.964203,32.097672 
	C352.360291,28.801617 353.964050,27.742657 357.504059,27.749117 
	C420.167297,27.863483 482.830811,27.831974 545.992676,27.831972 
z"/>
<path fill="#F96000" opacity="1.000000" stroke="none" 
	d="
M923.983276,822.862305 
	C922.319275,822.908142 920.655212,822.994141 918.991211,822.994202 
	C791.664246,823.000488 664.337219,823.000000 537.010254,823.000000 
	C535.355469,823.000000 533.700684,823.000000 531.302734,823.000000 
	C533.387146,813.266907 535.350098,803.922241 537.391846,794.594849 
	C559.619568,693.051086 581.844849,591.506836 604.100281,489.969147 
	C628.278564,379.658447 652.488342,269.354614 676.679016,159.046646 
	C676.892883,158.071381 676.844238,156.996017 677.237488,156.108963 
	C682.819641,143.518539 678.700867,133.914093 670.291931,123.499832 
	C645.919922,93.315659 622.747253,62.163109 599.110657,31.385336 
	C598.213013,30.216457 597.386292,28.993036 596.210449,27.354649 
	C699.493164,27.354649 802.339111,27.354649 905.673706,27.354649 
	C902.933167,39.932842 900.222961,52.420616 897.490906,64.903625 
	C875.977905,163.199249 854.466125,261.495148 832.943298,359.788605 
	C812.487732,453.208008 792.027466,546.626343 771.544678,640.039795 
	C769.376770,649.926697 773.092896,658.776428 776.875671,667.361023 
	C777.648560,669.115051 782.541443,669.053711 786.958252,670.197815 
	C781.322876,658.763733 777.907410,648.455994 777.991272,637.265564 
	C778.075256,626.053528 781.247131,615.695007 786.868286,604.312927 
	C789.390198,628.701904 802.515625,645.189697 819.918457,659.796021 
	C819.704346,662.293030 819.068848,664.071350 819.052612,665.855286 
	C818.957458,676.322632 818.730591,686.803101 819.179626,697.252014 
	C819.310547,700.298645 820.716125,704.157349 822.908142,706.085754 
	C829.438477,711.830688 836.206543,717.564697 843.690186,721.910828 
	C857.827942,730.121399 872.529968,737.360168 887.201721,745.279785 
	C904.273743,753.698059 921.141541,761.839294 938.328369,770.123962 
	C950.277893,776.595276 961.967834,782.817322 973.516174,789.292053 
	C980.121643,792.995422 986.496765,797.109680 993.132690,801.337769 
	C994.973267,802.966064 996.699768,804.245239 998.332458,805.634460 
	C1003.604614,810.120361 1008.842224,814.646851 1014.093140,819.157715 
	C1014.320068,824.976013 1009.805481,822.382324 1006.405151,822.969849 
	C997.118774,816.902832 988.570557,810.940918 979.862183,804.678223 
	C976.692139,802.379700 973.814026,800.138123 970.648865,798.427734 
	C958.484741,791.854614 946.228699,785.451660 933.804688,778.709473 
	C926.189575,774.676636 918.811890,770.847900 911.354675,767.180786 
	C902.271362,762.714050 893.121216,758.383118 883.798950,753.717346 
	C877.559692,750.292419 871.371155,747.398438 865.512329,743.945190 
	C850.233032,734.939453 835.125549,725.642578 819.885925,716.568604 
	C816.140564,714.338501 812.152039,712.516724 807.000000,709.846252 
	C807.000000,713.026917 807.000000,714.606201 807.000000,716.185486 
	C807.000000,724.681458 807.517822,733.219055 806.839539,741.660522 
	C806.276001,748.673706 808.878662,753.570007 814.095642,757.549988 
	C817.123291,759.859741 820.168945,762.193054 823.430542,764.140320 
	C835.116577,771.117493 846.823181,778.067261 858.670959,784.763916 
	C866.311096,789.082397 874.211487,792.940491 882.193054,797.278076 
	C892.284851,803.213989 902.243286,808.768494 912.042480,814.590759 
	C916.195007,817.058044 920.013184,820.088074 923.983276,822.862305 
z"/>
<path fill="#F96000" opacity="1.000000" stroke="none" 
	d="
M982.801636,594.733276 
	C1009.396240,594.733215 1035.990845,594.733215 1062.948730,594.733215 
	C1050.178345,653.640930 1037.548096,711.902161 1024.481567,770.507690 
	C1023.485352,770.520813 1022.906067,770.218201 1022.368347,769.854309 
	C1012.577515,763.228271 1002.791626,756.594910 992.846558,749.661682 
	C987.272949,746.224670 981.983521,742.841858 976.416077,740.004272 
	C964.351990,733.855774 952.145691,727.986145 939.792847,721.722961 
	C927.520752,715.952820 915.470825,710.423340 903.378113,704.989258 
	C897.964478,702.556519 892.464966,700.315063 886.801331,697.711914 
	C871.010803,689.268616 855.403931,681.136475 839.871704,672.864319 
	C838.602295,672.188171 837.841553,670.556946 836.844482,669.369507 
	C839.468384,669.311096 842.127808,669.485657 844.700623,669.092773 
	C845.926208,668.905762 846.987000,667.639038 848.558044,666.479492 
	C852.992249,664.366699 856.990906,662.635742 861.349548,660.886169 
	C866.801819,658.495911 871.893982,656.124146 877.324463,653.691528 
	C882.772644,651.038696 887.882446,648.446655 893.352051,645.876465 
	C899.153931,642.972168 904.596008,640.046021 910.412109,637.083862 
	C916.534119,634.059631 922.281982,631.071289 928.381470,628.025085 
	C934.664246,624.426941 940.595337,620.886658 946.875488,617.332153 
	C953.210388,613.584900 959.196167,609.851868 965.477783,605.946045 
	C971.449585,602.093262 977.125610,598.413269 982.801636,594.733276 
z"/>
<path fill="#030303" opacity="1.000000" stroke="none" 
	d="
M338.735718,873.101624 
	C338.399506,875.084351 338.214386,876.671814 337.981354,878.669800 
	C343.163086,878.669800 348.761871,880.337402 352.212341,878.323792 
	C359.466248,874.090515 366.728088,877.334167 373.813141,876.082397 
	C376.791626,875.556091 378.102753,876.943542 379.163513,879.678955 
	C383.826874,891.704590 388.744690,903.631531 394.038116,916.754089 
	C396.226807,911.530029 398.009857,907.387634 399.702942,903.208740 
	C402.883636,895.358154 406.146179,887.536133 409.091644,879.597229 
	C410.150818,876.742493 411.689850,875.910278 414.603241,876.022156 
	C420.421326,876.245728 426.254059,876.088501 432.451355,876.088501 
	C432.270721,877.022949 432.250305,877.796692 431.973389,878.463989 
	C422.360809,901.628418 412.973083,924.890564 403.013855,947.905396 
	C394.662842,967.203735 374.877289,973.773621 357.170441,963.712158 
	C356.456604,963.306519 355.804138,962.792908 354.681274,962.029053 
	C357.303986,956.696899 359.904785,951.409363 362.099213,946.947876 
	C366.724121,947.802368 370.870117,949.298828 374.956207,949.150024 
	C380.914856,948.933044 382.805969,945.100098 380.501129,939.663879 
	C372.072876,919.784607 363.644226,899.905518 355.206604,880.030212 
	C355.095032,879.767456 354.864258,879.555359 354.137939,878.577820 
	C354.137939,884.747192 354.137939,890.204956 354.137939,896.018677 
	C348.859283,896.018677 344.098114,896.018677 338.834656,896.018677 
	C338.834656,911.767761 338.834656,927.151184 338.834656,942.766418 
	C330.750885,942.766418 323.182495,942.766418 315.303894,942.766418 
	C315.303894,927.301025 315.303894,912.025635 315.303894,896.310181 
	C312.096649,896.310181 309.178711,896.310181 305.882568,896.310181 
	C305.882568,890.345764 305.882568,884.806885 305.882568,878.859253 
	C308.744263,878.859253 311.676086,878.859253 314.990723,878.859253 
	C315.259979,867.593811 318.324219,857.916077 329.187622,853.160034 
	C338.763031,848.967712 348.530121,849.508667 358.646301,853.630554 
	C356.701141,859.246887 354.874237,864.521790 352.981110,869.987854 
	C347.691833,868.577209 342.324707,866.170837 338.735718,873.101624 
z"/>
<path fill="#020202" opacity="1.000000" stroke="none" 
	d="
M278.924377,937.155457 
	C274.351776,926.145935 274.351776,926.145874 262.696808,926.145752 
	C255.533325,926.145630 248.363388,925.986633 241.211609,926.276001 
	C239.729263,926.335999 237.683121,927.733276 236.984222,929.078979 
	C234.703125,933.471008 234.099991,940.105896 230.643829,942.155518 
	C226.672485,944.510620 220.346680,942.912292 215.043030,942.996582 
	C212.395691,943.038696 209.747131,943.003906 206.580734,943.003906 
	C207.213806,941.267517 207.631348,939.881897 208.211060,938.567871 
	C219.607117,912.734924 231.067520,886.930298 242.373062,861.057861 
	C243.721573,857.971924 245.180008,856.374573 248.871933,856.635376 
	C254.342209,857.021790 259.868225,856.571777 265.352020,856.846497 
	C266.785858,856.918335 268.901337,858.015625 269.438324,859.210571 
	C281.692657,886.480469 293.773132,913.828430 305.864044,941.171570 
	C306.046936,941.585144 305.951843,942.121704 306.001404,942.807129 
	C297.798981,942.807129 289.698395,942.807129 281.329346,942.807129 
	C280.599396,941.123901 279.819794,939.326233 278.924377,937.155457 
M251.625839,892.099792 
	C249.536957,897.284363 247.448074,902.468872 245.236633,907.957642 
	C252.878555,907.957642 259.806702,907.957642 267.218292,907.957642 
	C263.588379,898.898193 260.097137,890.184814 256.274811,880.645203 
	C254.630981,884.684692 253.268570,888.032593 251.625839,892.099792 
z"/>
<path fill="#F96304" opacity="1.000000" stroke="none" 
	d="
M757.801392,881.771484 
	C761.374573,876.912964 765.789368,875.498047 771.434265,875.948486 
	C777.664001,876.445557 783.963928,876.061951 791.419678,876.061951 
	C781.746155,886.102112 772.828918,895.357361 763.731323,904.799805 
	C773.614929,917.382080 783.335083,929.756226 793.730042,942.989380 
	C784.048218,942.989380 775.331848,943.108765 766.626221,942.856934 
	C765.363892,942.820374 763.936584,941.182983 762.954407,939.984253 
	C757.496826,933.323425 752.153015,926.569458 747.008301,920.144653 
	C736.541504,925.157349 740.762085,934.592346 739.603333,942.662476 
	C731.953369,942.662476 724.390991,942.662476 716.491394,942.662476 
	C716.491394,912.509033 716.491394,882.306702 716.491394,851.740417 
	C724.081726,851.740417 731.638245,851.740417 739.677307,851.740417 
	C739.677307,867.286255 739.677307,882.670715 739.677307,899.480164 
	C746.265137,893.044067 751.905701,887.533447 757.801392,881.771484 
z"/>
<path fill="#F96203" opacity="1.000000" stroke="none" 
	d="
M679.314819,875.391235 
	C693.170654,878.458862 700.431641,886.364258 701.036987,900.012817 
	C701.619507,913.147339 701.380066,926.318604 701.489014,939.473755 
	C701.497131,940.451477 701.402588,941.429932 701.341858,942.700439 
	C693.574646,942.700439 686.028992,942.700439 677.996460,942.700439 
	C677.996460,932.317566 678.011230,922.040771 677.985229,911.764038 
	C677.979370,909.436096 678.054504,907.074707 677.706299,904.787415 
	C676.796204,898.808899 673.712891,895.602539 668.669495,895.031128 
	C662.677063,894.352173 657.145020,897.112671 655.311157,902.408386 
	C654.249878,905.473022 653.945068,908.911255 653.888855,912.191467 
	C653.715576,922.302429 653.825684,932.418335 653.825684,942.745300 
	C645.754578,942.745300 638.191467,942.745300 630.395508,942.745300 
	C630.395508,920.572937 630.395508,898.659973 630.395508,876.405457 
	C637.738220,876.405457 644.950012,876.405457 652.453552,876.405457 
	C652.621887,878.292786 652.780151,880.067444 653.001221,882.546265 
	C660.849854,876.367615 669.420288,874.050476 679.314819,875.391235 
z"/>
<path fill="#040404" opacity="1.000000" stroke="none" 
	d="
M444.422333,895.683350 
	C442.254578,891.348389 440.292816,887.335388 437.776154,882.187195 
	C443.211243,880.290771 448.328766,878.120117 453.650482,876.732788 
	C463.155151,874.254822 472.790161,874.217529 482.269714,877.019043 
	C493.271149,880.270325 500.337433,887.620544 500.946747,899.097290 
	C501.711639,913.504456 501.130890,927.983032 501.130890,942.720215 
	C494.350098,942.720215 487.279053,942.720215 479.853394,942.720215 
	C479.853394,940.425781 479.853394,938.193481 479.853394,935.304749 
	C471.004608,945.508240 460.353760,945.594177 449.330841,942.321472 
	C440.019592,939.556885 434.863037,931.941528 435.168427,922.866150 
	C435.466919,913.994995 440.957886,907.374023 450.669464,905.206665 
	C455.658722,904.093140 460.882751,903.929688 466.017670,903.604675 
	C469.811066,903.364624 473.631836,903.557556 477.822754,903.557556 
	C477.917145,898.229492 475.340820,895.252930 470.801178,893.938110 
	C463.015472,891.683228 455.628021,893.217529 448.664001,896.988220 
	C446.768738,898.014404 445.399261,898.742859 444.422333,895.683350 
M459.607239,926.873657 
	C464.328827,930.408020 469.226318,930.012878 473.958374,927.127014 
	C478.174866,924.555542 478.928650,920.570557 477.727234,915.809021 
	C474.421021,915.809021 471.291687,915.797607 468.162506,915.815674 
	C467.169708,915.821411 466.171387,915.852051 465.185791,915.962463 
	C458.789734,916.678467 456.726196,920.176697 459.607239,926.873657 
z"/>
<path fill="#FB680C" opacity="1.000000" stroke="none" 
	d="
M836.528748,669.274658 
	C837.841553,670.556946 838.602295,672.188171 839.871704,672.864319 
	C855.403931,681.136475 871.010803,689.268616 886.576538,698.010742 
	C885.703186,700.385559 884.172546,702.165710 884.116089,703.991455 
	C883.853760,712.465759 883.970154,720.952820 884.010803,729.435059 
	C884.036499,734.800842 883.128662,740.366089 886.997559,745.002686 
	C872.529968,737.360168 857.827942,730.121399 843.690186,721.910828 
	C836.206543,717.564697 829.438477,711.830688 822.908142,706.085754 
	C820.716125,704.157349 819.310547,700.298645 819.179626,697.252014 
	C818.730591,686.803101 818.957458,676.322632 819.052612,665.855286 
	C819.068848,664.071350 819.704346,662.293030 820.102356,660.063721 
	C823.884460,662.189148 827.558838,664.856140 831.382202,667.288818 
	C832.813843,668.199890 834.592529,668.565491 836.528748,669.274658 
z"/>
<path fill="#FE7825" opacity="1.000000" stroke="none" 
	d="
M993.004639,749.963135 
	C1002.791626,756.594910 1012.577515,763.228271 1022.368347,769.854309 
	C1022.906067,770.218201 1023.485352,770.520813 1024.371094,770.901062 
	C1030.561768,776.799988 1036.456299,782.620239 1042.272827,788.517639 
	C1044.018799,790.287903 1045.546509,792.273560 1046.952026,794.728638 
	C1046.486694,797.058533 1046.038574,798.819580 1046.032104,800.582153 
	C1045.976562,815.962769 1046.049072,831.343872 1045.945435,846.723999 
	C1045.930420,848.964722 1045.186157,851.200623 1044.779297,853.438782 
	C1036.296509,843.286377 1027.847168,833.105530 1019.293884,823.012756 
	C1018.033020,821.524902 1016.279541,820.454468 1014.423584,819.174316 
	C1008.842224,814.646851 1003.604614,810.120361 998.332458,805.634460 
	C996.699768,804.245239 994.973267,802.966064 993.090515,800.917236 
	C992.594177,798.096924 992.057068,795.997742 992.040283,793.894531 
	C991.953674,783.000183 991.916016,772.103821 992.046143,761.210327 
	C992.090942,757.457947 992.669739,753.712036 993.004639,749.963135 
z"/>
<path fill="#F96000" opacity="1.000000" stroke="none" 
	d="
M529.016602,943.000000 
	C525.059998,943.000000 521.601135,943.000000 517.930908,943.000000 
	C517.930908,914.116272 517.930908,885.719666 517.930908,857.022339 
	C525.897583,857.022339 533.646729,857.022339 541.944153,857.022339 
	C541.944153,879.047119 541.944153,901.103210 541.944153,923.679932 
	C555.875732,923.679932 569.276550,923.679932 582.922241,923.679932 
	C582.922241,930.285278 582.922241,936.365479 582.922241,943.000000 
	C565.053467,943.000000 547.283875,943.000000 529.016602,943.000000 
z"/>
<path fill="#FE7825" opacity="1.000000" stroke="none" 
	d="
M980.022278,804.979065 
	C988.570557,810.940918 997.118774,816.902832 1005.991699,823.019287 
	C1011.876709,828.531494 1017.436951,833.889099 1022.797607,839.827087 
	C1022.398621,842.189941 1022.030701,843.971924 1022.026184,845.754883 
	C1021.982544,863.001282 1022.090881,880.248840 1021.895813,897.493164 
	C1021.868591,899.897522 1020.435059,902.285889 1019.652649,904.681702 
	C1007.448792,886.937744 992.814453,871.442871 976.245361,857.065308 
	C976.508789,854.436401 976.958130,852.498108 976.967163,850.557678 
	C977.029541,837.174988 976.885437,823.789673 977.134338,810.411316 
	C977.168335,808.583252 979.014893,806.789001 980.022278,804.979065 
z"/>
<path fill="#FF7D2D" opacity="1.000000" stroke="none" 
	d="
M1019.753723,904.989075 
	C1020.435059,902.285889 1021.868591,899.897522 1021.895813,897.493164 
	C1022.090881,880.248840 1021.982544,863.001282 1022.026184,845.754883 
	C1022.030701,843.971924 1022.398621,842.189941 1022.941528,840.136841 
	C1040.548462,857.796509 1050.744507,879.059570 1053.966553,903.788818 
	C1056.878052,926.133301 1052.517212,947.410278 1045.344727,968.357666 
	C1045.098633,969.076660 1044.789917,969.774353 1043.953735,970.589600 
	C1040.482422,947.057190 1032.787109,925.194580 1019.753723,904.989075 
z"/>
<path fill="#FC6F17" opacity="1.000000" stroke="none" 
	d="
M924.354919,822.937439 
	C920.013184,820.088074 916.195007,817.058044 912.042480,814.590759 
	C902.243286,808.768494 892.284851,803.213989 882.193481,796.848511 
	C881.667297,783.912231 881.210205,771.679199 881.149414,759.444336 
	C881.140381,757.632080 883.003174,755.810608 884.000000,753.993469 
	C893.121216,758.383118 902.271362,762.714050 911.354675,767.180786 
	C918.811890,770.847900 926.189575,774.676636 933.570801,779.024170 
	C933.026001,781.405457 932.126831,783.182190 932.061523,784.989136 
	C931.574585,798.468079 931.252808,811.952942 930.879272,825.436035 
	C928.828369,824.628174 926.777466,823.820374 924.354919,822.937439 
z"/>
<path fill="#FD741E" opacity="1.000000" stroke="none" 
	d="
M931.085022,825.682861 
	C931.252808,811.952942 931.574585,798.468079 932.061523,784.989136 
	C932.126831,783.182190 933.026001,781.405457 933.772949,779.299988 
	C946.228699,785.451660 958.484741,791.854614 970.648865,798.427734 
	C973.814026,800.138123 976.692139,802.379700 979.862183,804.678223 
	C979.014893,806.789001 977.168335,808.583252 977.134338,810.411316 
	C976.885437,823.789673 977.029541,837.174988 976.967163,850.557678 
	C976.958130,852.498108 976.508789,854.436401 976.092651,856.771240 
	C961.044983,846.754395 946.167908,836.342102 931.085022,825.682861 
z"/>
<path fill="#FF7D2D" opacity="1.000000" stroke="none" 
	d="
M1044.857300,853.766052 
	C1045.186157,851.200623 1045.930420,848.964722 1045.945435,846.723999 
	C1046.049072,831.343872 1045.976562,815.962769 1046.032104,800.582153 
	C1046.038574,798.819580 1046.486694,797.058533 1047.103760,795.039673 
	C1063.165894,813.410400 1071.473755,834.995361 1073.993774,859.131470 
	C1075.980713,878.161987 1073.074463,896.533386 1068.063599,914.745178 
	C1067.768311,915.818665 1067.321655,916.850403 1066.434570,919.328918 
	C1063.552002,895.162903 1056.996338,873.688538 1044.857300,853.766052 
z"/>
<path fill="#F96000" opacity="1.000000" stroke="none" 
	d="
M591.850708,934.952515 
	C591.850708,915.184631 591.850708,895.908936 591.850708,876.353516 
	C599.654358,876.353516 607.060181,876.353516 614.803345,876.353516 
	C614.803345,898.429932 614.803345,920.454224 614.803345,942.740112 
	C607.332092,942.740112 599.919006,942.740112 591.850769,942.740112 
	C591.850769,940.300171 591.850769,937.872498 591.850708,934.952515 
z"/>
<path fill="#414141" opacity="1.000000" stroke="none" 
	d="
M993.165588,486.032227 
	C997.332520,480.879639 1001.796021,475.935028 1005.592041,470.522308 
	C1010.448486,463.597565 1013.108093,455.825317 1012.451721,447.124237 
	C1019.987305,462.872375 1021.412842,478.913971 1015.307007,495.529572 
	C1011.225342,506.636871 1004.218140,515.745056 996.194458,524.210449 
	C995.578247,522.034973 995.057800,520.104492 995.039429,518.169250 
	C994.951599,508.933746 995.081055,499.695496 994.917908,490.462067 
	C994.891602,488.975586 993.777100,487.508331 993.165588,486.032227 
z"/>
<path fill="#414141" opacity="1.000000" stroke="none" 
	d="
M1014.138367,517.027222 
	C1020.610840,506.795166 1025.837402,496.059692 1027.379395,482.527466 
	C1033.355347,494.731750 1035.973267,506.302460 1035.516968,518.593628 
	C1034.900635,535.199707 1026.951416,548.749573 1017.152344,561.501953 
	C1016.459229,559.484802 1016.040161,557.697021 1016.030762,555.907104 
	C1015.970398,544.433533 1016.067444,532.958618 1015.917480,521.486633 
	C1015.897888,519.992676 1014.758850,518.513306 1014.138367,517.027222 
z"/>
<path fill="#606060" opacity="1.000000" stroke="none" 
	d="
M982.898193,594.575684 
	C977.125610,598.413269 971.449585,602.093262 965.163086,605.698364 
	C964.035156,603.245789 963.101379,600.873352 963.070984,598.489441 
	C962.925964,587.107727 963.026184,575.722961 963.039124,564.339233 
	C969.159058,559.666138 975.279053,554.993042 981.773743,550.635376 
	C982.432373,553.070984 982.937683,555.188599 982.963440,557.311951 
	C983.110352,569.458008 983.143250,581.605530 983.214844,593.752502 
	C983.289429,594.023315 983.216064,594.245178 982.898193,594.575684 
z"/>
<path fill="#535353" opacity="1.000000" stroke="none" 
	d="
M983.549927,593.607544 
	C983.143250,581.605530 983.110352,569.458008 982.963440,557.311951 
	C982.937683,555.188599 982.432373,553.070984 982.094360,550.545532 
	C988.142639,544.485229 994.245056,538.830139 1000.680908,533.474060 
	C1001.342834,536.872131 1001.905212,539.967163 1001.958191,543.070923 
	C1002.155640,554.648438 1002.186035,566.228760 1002.279114,577.808044 
	C996.147705,583.026245 990.016296,588.244446 983.549927,593.607544 
z"/>
<path fill="#6D6D6D" opacity="1.000000" stroke="none" 
	d="
M962.732727,564.445435 
	C963.026184,575.722961 962.925964,587.107727 963.070984,598.489441 
	C963.101379,600.873352 964.035156,603.245789 964.867310,605.871155 
	C959.196167,609.851868 953.210388,613.584900 946.504456,617.047180 
	C945.522888,615.020264 945.048950,613.265808 945.035339,611.507751 
	C944.961060,601.915222 945.054871,592.321350 944.953918,582.729309 
	C944.933655,580.804443 944.320923,578.885742 943.981384,576.964233 
	C950.129700,572.826721 956.278015,568.689209 962.732727,564.445435 
z"/>
<path fill="#C3C3C3" opacity="1.000000" stroke="none" 
	d="
M819.029419,628.024902 
	C815.934509,629.541626 812.923401,631.292725 809.698486,632.445801 
	C808.595886,632.840027 806.352600,632.182495 805.656372,631.244263 
	C798.603638,621.740051 795.523315,610.918945 796.088806,599.153809 
	C796.152832,597.822510 797.905396,596.097107 799.299072,595.388367 
	C804.898926,592.540894 810.665527,590.021484 816.708252,587.709473 
	C817.364014,590.822388 817.918701,593.603455 817.956238,596.391541 
	C818.074829,605.212158 817.945862,614.036011 818.046631,622.857056 
	C818.066284,624.583191 818.686279,626.302490 819.029419,628.024902 
z"/>
<path fill="#858484" opacity="1.000000" stroke="none" 
	d="
M928.029907,628.082947 
	C922.281982,631.071289 916.534119,634.059631 910.400146,636.605957 
	C910.009277,625.167542 910.059143,614.170593 909.952087,603.175232 
	C909.931641,601.072083 909.292358,598.975098 909.098022,596.640381 
	C909.849487,595.956665 910.441589,595.507751 911.033691,595.058838 
	C916.110168,592.376160 921.186646,589.693420 926.675171,587.386414 
	C927.391418,589.880432 927.940918,591.996582 927.959045,594.117310 
	C928.055908,605.438599 928.019958,616.760925 928.029907,628.082947 
z"/>
<path fill="#606060" opacity="1.000000" stroke="none" 
	d="
M964.038330,552.118530 
	C958.597656,555.721802 953.156860,559.325073 947.250793,562.713989 
	C946.523743,560.554871 946.051514,558.611694 946.035706,556.664795 
	C945.957520,547.043823 946.091492,537.420105 945.915894,527.801636 
	C945.884155,526.064636 944.755737,524.347656 944.133545,522.621460 
	C950.221375,518.571899 956.309265,514.522400 962.707947,510.828613 
	C963.013367,518.608765 962.873169,526.036194 963.043945,533.456421 
	C963.187134,539.681519 963.693054,545.898132 964.038330,552.118530 
z"/>
<path fill="#555555" opacity="1.000000" stroke="none" 
	d="
M964.376587,552.019470 
	C963.693054,545.898132 963.187134,539.681519 963.043945,533.456421 
	C962.873169,526.036194 963.013367,518.608765 963.020752,510.734985 
	C968.000244,506.523743 972.977783,502.761902 978.637817,499.173218 
	C979.546875,501.106903 979.957397,502.866211 979.969360,504.628265 
	C980.033936,514.182556 979.904114,523.739380 980.094299,533.290344 
	C980.126038,534.885437 981.400269,536.455811 982.100342,538.037598 
	C976.305176,542.665161 970.510010,547.292786 964.376587,552.019470 
z"/>
<path fill="#797978" opacity="1.000000" stroke="none" 
	d="
M928.381470,628.025085 
	C928.019958,616.760925 928.055908,605.438599 927.959045,594.117310 
	C927.940918,591.996582 927.391418,589.880432 927.029358,587.341064 
	C932.409363,583.633667 937.847168,580.347290 943.633179,577.012573 
	C944.320923,578.885742 944.933655,580.804443 944.953918,582.729309 
	C945.054871,592.321350 944.961060,601.915222 945.035339,611.507751 
	C945.048950,613.265808 945.522888,615.020264 946.155396,617.061401 
	C940.595337,620.886658 934.664246,624.426941 928.381470,628.025085 
z"/>
<path fill="#B2B1B1" opacity="1.000000" stroke="none" 
	d="
M860.989502,660.904724 
	C856.990906,662.635742 852.992249,664.366699 848.625732,666.093384 
	C846.322449,664.881226 844.387024,663.673523 842.232422,661.781067 
	C842.341919,657.673645 842.888062,654.255127 842.955261,650.827271 
	C843.104248,643.234619 843.012634,635.637207 843.019165,628.041748 
	C846.740662,626.340271 850.517761,624.747559 854.157104,622.885559 
	C855.685303,622.103699 856.921875,620.751770 858.635498,619.765869 
	C859.020203,620.096924 859.060364,620.321167 859.293579,620.854980 
	C859.657654,628.629211 859.754150,636.096619 860.024109,643.557861 
	C860.233459,649.344177 860.659668,655.122742 860.989502,660.904724 
z"/>
<path fill="#B7B7B7" opacity="1.000000" stroke="none" 
	d="
M819.392090,627.976196 
	C818.686279,626.302490 818.066284,624.583191 818.046631,622.857056 
	C817.945862,614.036011 818.074829,605.212158 817.956238,596.391541 
	C817.918701,593.603455 817.364014,590.822388 817.047180,587.637573 
	C822.140869,584.913452 827.233398,582.589844 832.727112,580.596924 
	C833.418884,582.861816 833.943359,584.794006 833.960510,586.730652 
	C834.046509,596.460938 833.950134,606.192993 834.047119,615.923096 
	C834.064148,617.629395 834.697327,619.329529 835.045959,621.032471 
	C829.948853,623.330811 824.851807,625.629150 819.392090,627.976196 
z"/>
<path fill="#474747" opacity="1.000000" stroke="none" 
	d="
M1002.604248,577.649414 
	C1002.186035,566.228760 1002.155640,554.648438 1001.958191,543.070923 
	C1001.905212,539.967163 1001.342834,536.872131 1000.991943,533.344727 
	C1005.183167,527.759827 1009.396790,522.603210 1013.874390,517.236877 
	C1014.758850,518.513306 1015.897888,519.992676 1015.917480,521.486633 
	C1016.067444,532.958618 1015.970398,544.433533 1016.030762,555.907104 
	C1016.040161,557.697021 1016.459229,559.484802 1016.854065,561.661438 
	C1012.322693,567.196533 1007.626038,572.343689 1002.604248,577.649414 
z"/>
<path fill="#7E7E7E" opacity="1.000000" stroke="none" 
	d="
M920.349976,579.197388 
	C915.137939,582.111267 909.925903,585.025146 904.356934,587.556030 
	C903.666687,584.406372 903.073120,581.642212 903.045959,578.872498 
	C902.938904,567.958679 903.009827,557.043030 903.014709,546.128113 
	C907.774658,543.440979 912.534607,540.753906 917.647278,538.500977 
	C918.000061,550.147400 917.874817,561.362244 918.106445,572.569824 
	C918.152405,574.793518 919.566711,576.988953 920.349976,579.197388 
z"/>
<path fill="#898989" opacity="1.000000" stroke="none" 
	d="
M902.669250,546.177002 
	C903.009827,557.043030 902.938904,567.958679 903.045959,578.872498 
	C903.073120,581.642212 903.666687,584.406372 904.003479,587.604736 
	C900.171631,590.096252 896.336365,592.156189 891.981506,594.589539 
	C890.638794,595.241455 889.815735,595.519958 888.929932,595.396912 
	C888.579041,592.884277 888.060242,590.775330 888.040833,588.661743 
	C887.934326,577.048218 887.950134,565.433594 887.923950,553.819336 
	C892.723877,551.288147 897.523865,548.757019 902.669250,546.177002 
z"/>
<path fill="#91908F" opacity="1.000000" stroke="none" 
	d="
M887.573975,553.907104 
	C887.950134,565.433594 887.934326,577.048218 888.040833,588.661743 
	C888.060242,590.775330 888.579041,592.884277 888.637329,595.602417 
	C883.602966,598.427368 878.798523,600.645325 873.935913,602.457031 
	C873.586121,600.264771 873.052002,598.479980 873.042053,596.692322 
	C872.976013,584.868896 873.022522,573.044922 873.032349,561.221069 
	C877.762939,558.812317 882.493469,556.403625 887.573975,553.907104 
z"/>
<path fill="#4B4B4B" opacity="1.000000" stroke="none" 
	d="
M982.410583,537.919067 
	C981.400269,536.455811 980.126038,534.885437 980.094299,533.290344 
	C979.904114,523.739380 980.033936,514.182556 979.969360,504.628265 
	C979.957397,502.866211 979.546875,501.106903 978.957458,499.090515 
	C983.242004,494.654388 987.889404,490.474060 992.851196,486.162964 
	C993.777100,487.508331 994.891602,488.975586 994.917908,490.462067 
	C995.081055,499.695496 994.951599,508.933746 995.039429,518.169250 
	C995.057800,520.104492 995.578247,522.034973 995.911133,524.368408 
	C991.543518,529.112976 987.132202,533.456726 982.410583,537.919067 
z"/>
<path fill="#6D6D6D" opacity="1.000000" stroke="none" 
	d="
M943.834106,522.719727 
	C944.755737,524.347656 945.884155,526.064636 945.915894,527.801636 
	C946.091492,537.420105 945.957520,547.043823 946.035706,556.664795 
	C946.051514,558.611694 946.523743,560.554871 946.950562,562.910278 
	C943.063477,565.879639 939.011292,568.438477 934.204285,570.956604 
	C932.966309,569.301941 932.098328,567.695740 932.065857,566.072754 
	C931.916382,558.602234 932.111938,551.124695 931.957764,543.654358 
	C931.866150,539.213989 931.355713,534.782349 931.033569,530.346741 
	C935.200623,527.837158 939.367676,525.327637 943.834106,522.719727 
z"/>
<path fill="#757575" opacity="1.000000" stroke="none" 
	d="
M930.721191,530.451843 
	C931.355713,534.782349 931.866150,539.213989 931.957764,543.654358 
	C932.111938,551.124695 931.916382,558.602234 932.065857,566.072754 
	C932.098328,567.695740 932.966309,569.301941 933.866821,571.019897 
	C929.813904,573.664307 925.343750,576.204651 920.611755,578.971191 
	C919.566711,576.988953 918.152405,574.793518 918.106445,572.569824 
	C917.874817,561.362244 918.000061,550.147400 917.999695,538.466309 
	C922.135864,535.517334 926.272400,533.037109 930.721191,530.451843 
z"/>
<path fill="#F96304" opacity="1.000000" stroke="none" 
	d="
M594.177551,865.969788 
	C588.375244,860.211792 587.611328,854.107300 591.748779,848.900208 
	C595.994690,843.556519 605.406555,842.134949 611.845703,845.864746 
	C617.261536,849.001770 619.298584,855.165894 616.830505,860.948059 
	C613.563599,868.601562 603.497253,870.956238 594.177551,865.969788 
z"/>
<path fill="#BFBFBF" opacity="1.000000" stroke="none" 
	d="
M842.655640,628.062012 
	C843.012634,635.637207 843.104248,643.234619 842.955261,650.827271 
	C842.888062,654.255127 842.341919,657.673645 842.020264,661.520081 
	C831.381226,656.505554 822.195190,649.072754 812.246582,640.996033 
	C822.932434,636.403198 832.612305,632.242737 842.655640,628.062012 
z"/>
<path fill="#A7A6A6" opacity="1.000000" stroke="none" 
	d="
M860.088684,611.017761 
	C856.365906,612.365051 852.643127,613.712341 848.230713,614.814209 
	C847.360779,612.779785 847.033447,610.991577 847.023865,609.201599 
	C846.960938,597.428528 846.966614,585.655029 846.949890,573.881714 
	C851.020447,571.876648 855.090942,569.871582 859.559692,568.282227 
	C859.971863,580.500916 859.934753,592.304443 860.057800,604.106262 
	C860.075256,605.782410 860.870972,607.450317 861.192688,609.393677 
	C860.959839,609.821411 860.840698,609.977478 860.553406,610.253174 
	C860.132874,610.537292 860.006287,610.770081 860.012329,611.036255 
	C860.019226,611.001160 860.088684,611.017761 860.088684,611.017761 
z"/>
<path fill="#9C9C9B" opacity="1.000000" stroke="none" 
	d="
M861.306458,609.122070 
	C860.870972,607.450317 860.075256,605.782410 860.057800,604.106262 
	C859.934753,592.304443 859.971863,580.500916 859.921753,568.203979 
	C864.040039,565.582581 868.194397,563.455261 872.690552,561.274475 
	C873.022522,573.044922 872.976013,584.868896 873.042053,596.692322 
	C873.052002,598.479980 873.586121,600.264771 873.618591,602.615967 
	C869.341797,605.161438 865.324097,607.141724 861.306458,609.122070 
z"/>
<path fill="#ADADAD" opacity="1.000000" stroke="none" 
	d="
M846.588745,573.932007 
	C846.966614,585.655029 846.960938,597.428528 847.023865,609.201599 
	C847.033447,610.991577 847.360779,612.779785 847.868164,614.863831 
	C844.033630,617.017700 839.872070,618.876648 835.378174,620.884033 
	C834.697327,619.329529 834.064148,617.629395 834.047119,615.923096 
	C833.950134,606.192993 834.046509,596.460938 833.960510,586.730652 
	C833.943359,584.794006 833.418884,582.861816 833.076172,580.523254 
	C837.425232,578.073364 841.826355,576.027832 846.588745,573.932007 
z"/>
<path fill="#F96203" opacity="1.000000" stroke="none" 
	d="
M861.192688,609.393677 
	C865.324097,607.141724 869.341797,605.161438 873.676758,603.022217 
	C878.798523,600.645325 883.602966,598.427368 888.700012,596.003906 
	C889.815735,595.519958 890.638794,595.241455 891.767578,594.845032 
	C898.082153,594.783936 904.091187,594.840759 910.566895,594.978210 
	C910.441589,595.507751 909.849487,595.956665 908.738159,596.686279 
	C902.460815,599.967712 896.702759,602.968445 890.582153,605.985962 
	C885.078979,608.623962 879.938354,611.245178 874.444946,613.922791 
	C869.095032,616.167969 864.097778,618.356689 859.100586,620.545471 
	C859.060364,620.321167 859.020203,620.096924 858.870483,619.551941 
	C859.249939,616.765686 859.738892,614.300110 860.158203,611.426147 
	C860.088684,611.017761 860.019226,611.001160 860.244568,611.007507 
	C860.678589,610.756042 860.762451,610.462585 860.721619,610.133484 
	C860.840698,609.977478 860.959839,609.821411 861.192688,609.393677 
z"/>
<path fill="#FB690E" opacity="1.000000" stroke="none" 
	d="
M883.798950,753.717346 
	C883.003174,755.810608 881.140381,757.632080 881.149414,759.444336 
	C881.210205,771.679199 881.667297,783.912231 881.995605,796.575317 
	C874.211487,792.940491 866.311096,789.082397 858.670959,784.763916 
	C846.823181,778.067261 835.116577,771.117493 823.430542,764.140320 
	C820.168945,762.193054 817.123291,759.859741 814.095642,757.549988 
	C808.878662,753.570007 806.276001,748.673706 806.839539,741.660522 
	C807.517822,733.219055 807.000000,724.681458 807.000000,716.185486 
	C807.000000,714.606201 807.000000,713.026917 807.000000,709.846252 
	C812.152039,712.516724 816.140564,714.338501 819.885925,716.568604 
	C835.125549,725.642578 850.233032,734.939453 865.512329,743.945190 
	C871.371155,747.398438 877.559692,750.292419 883.798950,753.717346 
z"/>
<path fill="#FD731D" opacity="1.000000" stroke="none" 
	d="
M992.846558,749.661682 
	C992.669739,753.712036 992.090942,757.457947 992.046143,761.210327 
	C991.916016,772.103821 991.953674,783.000183 992.040283,793.894531 
	C992.057068,795.997742 992.594177,798.096924 992.933472,800.618469 
	C986.496765,797.109680 980.121643,792.995422 973.516174,789.292053 
	C961.967834,782.817322 950.277893,776.595276 938.325195,769.657471 
	C938.002075,755.254089 937.924683,741.459717 938.088623,727.668274 
	C938.111145,725.772400 939.331726,723.890686 939.997559,722.002441 
	C952.145691,727.986145 964.351990,733.855774 976.416077,740.004272 
	C981.983521,742.841858 987.272949,746.224670 992.846558,749.661682 
z"/>
<path fill="#FC6D15" opacity="1.000000" stroke="none" 
	d="
M939.792847,721.722961 
	C939.331726,723.890686 938.111145,725.772400 938.088623,727.668274 
	C937.924683,741.459717 938.002075,755.254089 938.006226,769.514038 
	C921.141541,761.839294 904.273743,753.698059 887.201721,745.279785 
	C883.128662,740.366089 884.036499,734.800842 884.010803,729.435059 
	C883.970154,720.952820 883.853760,712.465759 884.116089,703.991455 
	C884.172546,702.165710 885.703186,700.385559 886.779602,698.285645 
	C892.464966,700.315063 897.964478,702.556519 903.378113,704.989258 
	C915.470825,710.423340 927.520752,715.952820 939.792847,721.722961 
z"/>
<path fill="#91908F" opacity="1.000000" stroke="none" 
	d="
M890.944702,605.969238 
	C896.702759,602.968445 902.460815,599.967712 908.578735,596.921143 
	C909.292358,598.975098 909.931641,601.072083 909.952087,603.175232 
	C910.059143,614.170593 910.009277,625.167542 910.026001,636.641846 
	C904.596008,640.046021 899.153931,642.972168 893.354858,645.418579 
	C892.998535,633.823303 893.094482,622.706116 892.907715,611.593689 
	C892.875977,609.708374 891.629822,607.843567 890.944702,605.969238 
z"/>
<path fill="#9C9C9B" opacity="1.000000" stroke="none" 
	d="
M890.582153,605.985962 
	C891.629822,607.843567 892.875977,609.708374 892.907715,611.593689 
	C893.094482,622.706116 892.998535,633.823303 892.994995,645.396729 
	C887.882446,648.446655 882.772644,651.038696 877.314331,653.286987 
	C876.643860,650.182983 876.083435,647.426086 876.044373,644.661865 
	C875.923157,636.078918 876.063416,627.492310 875.945557,618.909241 
	C875.922485,617.223328 875.198425,615.547119 874.797668,613.866394 
	C879.938354,611.245178 885.078979,608.623962 890.582153,605.985962 
z"/>
<path fill="#A7A6A6" opacity="1.000000" stroke="none" 
	d="
M874.444946,613.922791 
	C875.198425,615.547119 875.922485,617.223328 875.945557,618.909241 
	C876.063416,627.492310 875.923157,636.078918 876.044373,644.661865 
	C876.083435,647.426086 876.643860,650.182983 876.975952,653.347778 
	C871.893982,656.124146 866.801819,658.495911 861.349548,660.886169 
	C860.659668,655.122742 860.233459,649.344177 860.024109,643.557861 
	C859.754150,636.096619 859.657654,628.629211 859.293579,620.854980 
	C864.097778,618.356689 869.095032,616.167969 874.444946,613.922791 
z"/>
<path fill="#F9F9F9" opacity="1.000000" stroke="none" 
	d="
M251.765991,891.740112 
	C253.268570,888.032593 254.630981,884.684692 256.274811,880.645203 
	C260.097137,890.184814 263.588379,898.898193 267.218292,907.957642 
	C259.806702,907.957642 252.878555,907.957642 245.236633,907.957642 
	C247.448074,902.468872 249.536957,897.284363 251.765991,891.740112 
z"/>
<path fill="#F9F9F9" opacity="1.000000" stroke="none" 
	d="
M459.350494,926.562195 
	C456.726196,920.176697 458.789734,916.678467 465.185791,915.962463 
	C466.171387,915.852051 467.169708,915.821411 468.162506,915.815674 
	C471.291687,915.797607 474.421021,915.809021 477.727234,915.809021 
	C478.928650,920.570557 478.174866,924.555542 473.958374,927.127014 
	C469.226318,930.012878 464.328827,930.408020 459.350494,926.562195 
z"/>
<path fill="#FFFFFF" opacity="1.000000" stroke="none" 
	d="
M860.553406,610.253174 
	C860.762451,610.462585 860.678589,610.756042 860.237671,611.042603 
	C860.006287,610.770081 860.132874,610.537292 860.553406,610.253174 
z"/>
</svg>